<svg xmlns="http://www.w3.org/2000/svg" width="127" height="87" viewBox="0 0 127 87"><g transform="translate(-43 -467)"><g transform="translate(43 467)" fill="none" stroke="#fff" stroke-width="2"><rect width="127" height="87" rx="8" stroke="none"/><rect x="1" y="1" width="125" height="85" rx="7" fill="none"/></g><path d="M1919,3506.294h126.169" transform="translate(-1876 -2966.929)" fill="none" stroke="#fff" stroke-width="2"/><path d="M12.753,3.132a2,2,0,0,1,3.493,0L27.341,23.026A2,2,0,0,1,25.595,26H3.405a2,2,0,0,1-1.747-2.974Z" transform="translate(122 491) rotate(90)" fill="none" opacity="0.641"/><g transform="translate(83 482)" fill="none" stroke="#fff" stroke-width="2"><ellipse cx="23.5" cy="24" rx="23.5" ry="24" stroke="none"/><ellipse cx="23.5" cy="24" rx="22.5" ry="23" fill="none"/></g><path d="M8.75,3.168a2,2,0,0,1,3.5,0l7.11,12.865A2,2,0,0,1,17.61,19H3.39a2,2,0,0,1-1.75-2.967Z" transform="translate(119 496) rotate(90)" fill="#fff"/></g></svg>