<svg xmlns="http://www.w3.org/2000/svg" width="567" height="268.21" viewBox="0 0 567 268.21"><g transform="translate(-836 -5453.834)"><path d="M1006.708,738.583V958.349a24.22,24.22,0,0,1-24.222,24.222h-86.63a21.023,21.023,0,1,0-42.047,0H463.929a24.22,24.22,0,0,1-24.221-24.222V738.583a24.22,24.22,0,0,1,24.221-24.223h389.88a21.023,21.023,0,1,0,42.047,0h86.63A24.221,24.221,0,0,1,1006.708,738.583Z" transform="translate(396.292 4739.475)" fill="#fff"/><line y2="203.865" transform="translate(1269.532 5486.008)" fill="#fff" stroke="#000" stroke-miterlimit="10" stroke-width="0.491" stroke-dasharray="2.944 2.944"/><g transform="translate(1295.314 5492.427)"><g transform="translate(0)"><rect width="71.913" height="5.219"/><rect width="71.913" height="1.74" transform="translate(0.29 21.168)"/><rect width="71.913" height="1.74" transform="translate(0.29 24.648)"/><rect width="71.913" height="1.74" transform="translate(0.29 28.707)"/><rect width="71.913" height="1.74" transform="translate(0.29 7.249)"/><rect width="71.913" height="1.74" transform="translate(0.29 11.309)"/><rect width="71.913" height="4.06" transform="translate(0.29 15.368)"/></g><g transform="translate(0 32.477)"><rect width="71.913" height="5.219"/><rect width="71.913" height="1.74" transform="translate(0.29 21.168)"/><rect width="71.913" height="1.74" transform="translate(0.29 24.647)"/><rect width="71.913" height="1.74" transform="translate(0.29 28.707)"/><rect width="71.913" height="1.74" transform="translate(0.29 7.249)"/><rect width="71.913" height="1.74" transform="translate(0.29 11.309)"/><rect width="71.913" height="4.06" transform="translate(0.29 15.368)"/></g></g><g transform="translate(1295.314 5557.96)"><g transform="translate(0)"><rect width="71.913" height="5.219"/><rect width="71.913" height="1.74" transform="translate(0.29 21.168)"/><rect width="71.913" height="1.74" transform="translate(0.29 24.648)"/><rect width="71.913" height="1.74" transform="translate(0.29 28.707)"/><rect width="71.913" height="1.74" transform="translate(0.29 7.249)"/><rect width="71.913" height="1.74" transform="translate(0.29 11.309)"/><rect width="71.913" height="4.06" transform="translate(0.29 15.368)"/></g><g transform="translate(0 32.477)"><rect width="71.913" height="5.219"/><rect width="71.913" height="1.74" transform="translate(0.29 21.168)"/><rect width="71.913" height="1.74" transform="translate(0.29 24.648)"/><rect width="71.913" height="1.74" transform="translate(0.29 28.707)"/><rect width="71.913" height="1.74" transform="translate(0.29 7.249)"/><rect width="71.913" height="1.74" transform="translate(0.29 11.309)"/><rect width="71.913" height="4.06" transform="translate(0.29 15.368)"/></g></g><g transform="translate(1295.314 5623.494)"><g transform="translate(0)"><rect width="71.913" height="5.219"/><rect width="71.913" height="1.74" transform="translate(0.29 21.168)"/><rect width="71.913" height="1.74" transform="translate(0.29 24.647)"/><rect width="71.913" height="1.74" transform="translate(0.29 28.707)"/><rect width="71.913" height="1.74" transform="translate(0.29 7.249)"/><rect width="71.913" height="1.74" transform="translate(0.29 11.309)"/><rect width="71.913" height="4.06" transform="translate(0.29 15.368)"/></g><g transform="translate(0 32.477)"><rect width="71.913" height="5.219"/><rect width="71.913" height="1.74" transform="translate(0.29 21.168)"/><rect width="71.913" height="1.74" transform="translate(0.29 24.647)"/><rect width="71.913" height="1.74" transform="translate(0.29 28.707)"/><rect width="71.913" height="1.74" transform="translate(0.29 7.249)"/><rect width="71.913" height="1.74" transform="translate(0.29 11.309)"/><rect width="71.913" height="4.06" transform="translate(0.29 15.368)"/></g></g><text transform="translate(1382.441 5626.104) rotate(-90)" font-size="9" font-family="SegoeUI, Segoe UI" letter-spacing="0.18em"><tspan x="0" y="0">PUBLICO</tspan></text><text transform="translate(1286.852 5495.037) rotate(90)" font-size="5" font-family="SegoeUI, Segoe UI" letter-spacing="0.54em"><tspan x="0" y="0">7-9877 6674334 455544 </tspan></text></g></svg>