<svg xmlns="http://www.w3.org/2000/svg" width="126.311" height="87" viewBox="0 0 126.311 87"><g transform="translate(-305 -2140)"><g transform="translate(305 2140)" fill="none" stroke="#fff" stroke-width="2"><rect width="126" height="87" rx="8" stroke="none"/><rect x="1" y="1" width="124" height="85" rx="7" fill="none"/></g><path d="M1919,3506.294h126.311" transform="translate(-1614 -1293.848)" fill="none" stroke="#fff" stroke-width="2"/><g transform="translate(344.422 2155.272)"><path d="M208.361,609.9c.226.065.456.115.675.2a3.886,3.886,0,0,1,2.717,3.318,14.626,14.626,0,0,1,.011,1.808h-7.927v2.672h7.938v5.341h-7.939V625.9h7.94v5.342h-7.94v2.671h7.9c.572,3.311-1.512,5.345-3.965,5.354q-5.319.018-10.638,0a3.977,3.977,0,0,1-4.012-3.968c-.011-.441,0-.882,0-1.361h7.98v-2.673h-7.951v-5.341H201.1v-2.673h-7.953v-5.341H201.1v-2.656h-7.918c-.429-2.78.839-4.817,3.271-5.306.025-.005.045-.036.067-.055Z" transform="translate(-181.318 -609.896)" fill="#fff"/><path d="M189.2,670.9v-2.671c.706,0,1.4-.02,2.09.005a1.5,1.5,0,0,0,1.548-.958c.338-.725.7-1.438,1.07-2.147a3.927,3.927,0,0,1,3.662-2.24c.741-.011,1.482,0,2.258,0v-2.656h-2.6V657.4h7.941V660.2h-2.6v2.687c.66,0,1.324.013,1.986,0a4.056,4.056,0,0,1,4.049,2.49c.32.668.664,1.324.989,1.989a1.426,1.426,0,0,0,1.422.868c.71-.016,1.422,0,2.223,0V670.9Z" transform="translate(-180.051 -625.321)" fill="#fff"/><path d="M231.359,622.679l1.87-1.862a10.373,10.373,0,0,1,.011,14.633l-1.875-1.87a7.816,7.816,0,0,0-.007-10.9Z" transform="translate(-193.742 -613.442)" fill="#fff"/><path d="M180.571,633.608l-1.86,1.857a10.354,10.354,0,0,1-.065-14.63l1.875,1.871a7.81,7.81,0,0,0,.05,10.9Z" transform="translate(-175.652 -613.448)" fill="#fff"/><path d="M185.06,626.369l1.841,1.843c-.9,1.376-.9,2.183-.021,3.4l-1.843,1.846A4.99,4.99,0,0,1,185.06,626.369Z" transform="translate(-178.224 -615.245)" fill="#fff"/><path d="M227.6,633.51l-1.842-1.843a2.516,2.516,0,0,0,.018-3.4l1.839-1.848A4.994,4.994,0,0,1,227.6,633.51Z" transform="translate(-191.924 -615.262)" fill="#fff"/></g></g></svg>