<svg xmlns="http://www.w3.org/2000/svg" width="60.584" height="60.584" viewBox="0 0 60.584 60.584"><g transform="translate(-188.338 -146.734)"><g transform="translate(188.338 146.734)"><path d="M218.63,146.734a30.292,30.292,0,1,1-30.292,30.293A30.294,30.294,0,0,1,218.63,146.734Z" transform="translate(-188.338 -146.734)" fill="#1878f3" fill-rule="evenodd"/></g><g transform="translate(210.774 160.115)"><path d="M206.656,172.64v16.352a.428.428,0,0,0,.427.426h6.071a.427.427,0,0,0,.427-.426V172.374h4.4a.432.432,0,0,0,.427-.39l.423-5.011a.426.426,0,0,0-.423-.461h-4.826v-3.55a1.505,1.505,0,0,1,1.5-1.51h3.4a.429.429,0,0,0,.429-.429v-5a.429.429,0,0,0-.429-.424H212.75a6.092,6.092,0,0,0-6.093,6.09v4.828h-3.034a.428.428,0,0,0-.427.427v5.006a.427.427,0,0,0,.427.427h3.034Z" transform="translate(-203.195 -155.595)" fill="#fff" fill-rule="evenodd"/></g></g></svg>