<svg xmlns="http://www.w3.org/2000/svg" width="60.865" height="60.865" viewBox="0 0 60.865 60.865"><g transform="translate(-396.352 -63.529)"><g transform="translate(396.352 63.529)"><path d="M426.787,63.529A30.432,30.432,0,1,1,396.352,93.96,30.429,30.429,0,0,1,426.787,63.529Z" transform="translate(-396.352 -63.529)" fill="#ef0075" fill-rule="evenodd"/></g><g transform="translate(410.201 77.382)"><path d="M435.518,95.833a6.863,6.863,0,0,1-6.864,6.861H415.472a6.861,6.861,0,0,1-6.862-6.861V82.647a6.862,6.862,0,0,1,6.862-6.862h13.182a6.864,6.864,0,0,1,6.864,6.862V95.833Zm3.127-13.185a9.985,9.985,0,0,0-9.99-9.987H415.472a9.989,9.989,0,0,0-9.992,9.987V95.833a9.99,9.99,0,0,0,9.992,9.989h13.182a9.987,9.987,0,0,0,9.99-9.989V82.647ZM422.122,94.7a5.248,5.248,0,1,0-5.243-5.248,5.251,5.251,0,0,0,5.243,5.248Zm0-13.437a8.19,8.19,0,1,0,8.189,8.19,8.2,8.2,0,0,0-8.189-8.19Zm8.667-2.5a1.948,1.948,0,1,0,1.95,1.946A1.948,1.948,0,0,0,430.789,78.765Z" transform="translate(-405.48 -72.66)" fill="#fff" fill-rule="evenodd"/></g></g></svg>