<svg xmlns="http://www.w3.org/2000/svg" xmlns:xlink="http://www.w3.org/1999/xlink" width="187.855" height="104.052" viewBox="0 0 187.855 104.052"><defs><linearGradient id="a" x1="0.911" y1="0.167" x2="-0.318" y2="1.609" gradientUnits="objectBoundingBox"><stop offset="0" stop-color="#fff"/><stop offset="1" stop-color="#a13b14"/></linearGradient><linearGradient id="b" x1="0.348" y1="0.546" x2="-0.115" y2="1.332" xlink:href="#a"/></defs><g transform="translate(-553.195 -1502.045)"><path d="M555.96,1567.615a19.762,19.762,0,0,1,7.663-7.9,22.179,22.179,0,0,1,11.218-2.8q8.135,0,13.469,4.068a19.8,19.8,0,0,1,7.149,11.415H583.531a8.726,8.726,0,0,0-3.2-4.463,9.293,9.293,0,0,0-5.569-1.619,9.119,9.119,0,0,0-7.5,3.436q-2.766,3.436-2.765,9.756,0,6.241,2.765,9.677a9.121,9.121,0,0,0,7.5,3.437q6.714,0,8.769-6h11.929a20.192,20.192,0,0,1-7.189,11.3q-5.373,4.189-13.429,4.187a22.164,22.164,0,0,1-11.218-2.8,19.753,19.753,0,0,1-7.663-7.9,26.942,26.942,0,0,1,0-23.778Z" transform="translate(0 -25.254)" fill="#fff"/><path d="M651.46,1531v58.459H640.4V1531Z" transform="translate(-40.14 -13.329)" fill="#fff"/><path d="M676.409,1567.574a19.4,19.4,0,0,1,7.189-7.9,19.14,19.14,0,0,1,10.151-2.765,17.843,17.843,0,0,1,8.572,1.975,17.4,17.4,0,0,1,5.885,4.977v-6.24h11.139v43.765H708.2v-6.4a16.45,16.45,0,0,1-5.885,5.1,18.012,18.012,0,0,1-8.65,2.014,18.6,18.6,0,0,1-10.072-2.844,19.9,19.9,0,0,1-7.189-8.018,25.734,25.734,0,0,1-2.647-11.889A25.321,25.321,0,0,1,676.409,1567.574Zm30.216,5.017a11.149,11.149,0,0,0-4.266-4.424,11.4,11.4,0,0,0-5.767-1.54,11.1,11.1,0,0,0-9.914,5.885,13.726,13.726,0,0,0-1.62,6.833,14.177,14.177,0,0,0,1.62,6.913,11.64,11.64,0,0,0,4.265,4.542,10.826,10.826,0,0,0,5.649,1.58,11.4,11.4,0,0,0,5.767-1.54,11.146,11.146,0,0,0,4.266-4.423,15.914,15.914,0,0,0,0-13.825Z" transform="translate(-55.496 -25.254)" fill="#fff"/><path d="M824.777,1641.8c-.572.054.46.086-.1.1l1.349,14.815,9.4-1-1.506-16.542A24.532,24.532,0,0,1,824.777,1641.8Z" transform="translate(-124.926 -63.118)" fill="#f89c1c"/><path d="M875.083,1579.37a19.914,19.914,0,0,1-6.433,8.641,18.771,18.771,0,0,1-9.85,3.751,18.441,18.441,0,0,1-7.092-.637,26.237,26.237,0,0,0,4.674-7.658q.291-.721.534-1.457a10.9,10.9,0,0,0,3.648-1.754,11.7,11.7,0,0,0,3.843-4.868,14.175,14.175,0,0,0,.982-7.07,13.709,13.709,0,0,0-2.234-6.66,11.213,11.213,0,0,0-4.641-3.978,11.077,11.077,0,0,0-2.348-.777c-.372-.081-.75-.14-1.128-.184a20.515,20.515,0,0,0-2.153-3.5,13.553,13.553,0,0,0-1.338-1.592.341.341,0,0,0-.043-.049,15.661,15.661,0,0,0-1.8-1.587c-.524-.5-1.063-.972-1.625-1.414a.158.158,0,0,1-.022-.016,18.671,18.671,0,0,1,6.644-1.8,19.083,19.083,0,0,1,10.357,1.835,19.45,19.45,0,0,1,7.874,7.173,25.383,25.383,0,0,1,3.708,11.523A25.8,25.8,0,0,1,875.083,1579.37Z" transform="translate(-135.725 -20.541)" fill="#f89c1c"/><path d="M836.63,1526.319l12.038-19.6-8.9-4.678-9.506,22.076A27.094,27.094,0,0,1,836.63,1526.319Z" transform="translate(-127.534 0)" fill="#f89c1c"/><path d="M815.6,1528.917l-.078-15.174-8.491.667,1.72,14.544A37.909,37.909,0,0,1,815.6,1528.917Z" transform="translate(-116.841 -5.384)" fill="#f89c1c"/><path d="M828.448,1654.692l-9.289.5.289,1.993c-.349.166-.693.328-1.042.489-3.037,1.419-6.225,2.926-6.889,6.571a8.537,8.537,0,0,0,.555,4.706,6.766,6.766,0,0,0,3.417,3.771,10.167,10.167,0,0,0,5.963.034c3.124-.882,6.149-2.855,7.31-5.886.84-2.2.606-4.643.351-6.982A41.376,41.376,0,0,0,828.448,1654.692Z" transform="translate(-118.848 -70.263)" fill="#f89c1c"/><path d="M829.348,1655.711l-.011-.121c-.027-.952-.122-1.91-.225-2.85-.047-.995-.161-1.981-.3-2.966l-.966-10.605a24.532,24.532,0,0,1-9.143,2.628c-.572.054.46.086-.1.1l.56,6.144h0l.186,2.041c-.314.149-.625.3-.939.441-3.037,1.419-6.225,2.926-6.889,6.571a8.537,8.537,0,0,0,.555,4.706,6.766,6.766,0,0,0,3.417,3.771,10.167,10.167,0,0,0,5.963.035c3.124-.883,6.149-2.855,7.31-5.886a10.491,10.491,0,0,0,.578-4.009Z" transform="translate(-118.848 -63.118)" fill="url(#a)" style="mix-blend-mode:multiply;isolation:isolate"/><path d="M812.3,1571.151a25.466,25.466,0,0,0-3.621-11.388l-.086-.135a19.5,19.5,0,0,0-7.874-7.178,19.123,19.123,0,0,0-10.357-1.83,17.887,17.887,0,0,0-8.355,2.78c-.378.254-.745.507-1.1.777a16.187,16.187,0,0,0-4.312,4.755l-.572-6.293-11.015,1,5.057,55.52-1.3.524c-3.754,1.515-7.7,3.129-8.737,7.486a10.319,10.319,0,0,0,.37,5.713,8.181,8.181,0,0,0,3.88,4.773c1.98.962,5.087.9,7.194.426,3.827-.864,7.6-3.049,9.2-6.633,1.155-2.6,1.031-5.564.874-8.4.021-3.67-.679-7.3-.993-10.976-.329-3.853-.725-7.773-1.079-11.578q.059.635.106,1.28l-.16-1.761a18.272,18.272,0,0,0,6.4,4.415,17.691,17.691,0,0,0,8.635,1.2,18.731,18.731,0,0,0,9.85-3.756,19.9,19.9,0,0,0,6.433-8.635A25.73,25.73,0,0,0,812.3,1571.151Zm-12.235,8.1a11.765,11.765,0,0,1-3.843,4.868,11.129,11.129,0,0,1-11.323,1.069,11.371,11.371,0,0,1-4.652-4.059A15.4,15.4,0,0,1,779,1567.438a11.4,11.4,0,0,1,3.843-4.83,11.013,11.013,0,0,1,5.489-2.046,11.449,11.449,0,0,1,5.84.971,11.188,11.188,0,0,1,4.641,3.983,13.708,13.708,0,0,1,2.234,6.66A14.175,14.175,0,0,1,800.068,1579.247Z" transform="translate(-95.094 -22.317)" fill="#f89c1c"/><path d="M812.3,1571.151a25.466,25.466,0,0,0-3.621-11.388l-.086-.135a19.5,19.5,0,0,0-7.874-7.178,19.123,19.123,0,0,0-10.357-1.83,17.887,17.887,0,0,0-8.355,2.78c-.378.254-.745.507-1.1.777a16.187,16.187,0,0,0-4.312,4.755l-.572-6.293-11.015,1,5.057,55.52-1.3.524c-3.754,1.515-7.7,3.129-8.737,7.486a10.319,10.319,0,0,0,.37,5.713,8.181,8.181,0,0,0,3.88,4.773c1.98.962,5.087.9,7.194.426,3.827-.864,7.6-3.049,9.2-6.633,1.155-2.6,1.031-5.564.874-8.4.021-3.67-.679-7.3-.993-10.976-.329-3.853-.725-7.773-1.079-11.578q.059.635.106,1.28l-.16-1.761a18.272,18.272,0,0,0,6.4,4.415,17.691,17.691,0,0,0,8.635,1.2,18.731,18.731,0,0,0,9.85-3.756,19.9,19.9,0,0,0,6.433-8.635A25.73,25.73,0,0,0,812.3,1571.151Zm-12.235,8.1a11.765,11.765,0,0,1-3.843,4.868,11.129,11.129,0,0,1-11.323,1.069,11.371,11.371,0,0,1-4.652-4.059A15.4,15.4,0,0,1,779,1567.438a11.4,11.4,0,0,1,3.843-4.83,11.013,11.013,0,0,1,5.489-2.046,11.449,11.449,0,0,1,5.84.971,11.188,11.188,0,0,1,4.641,3.983,13.708,13.708,0,0,1,2.234,6.66A14.175,14.175,0,0,1,800.068,1579.247Z" transform="translate(-95.094 -22.317)" fill="url(#b)" style="mix-blend-mode:multiply;isolation:isolate"/></g></svg>