<svg xmlns="http://www.w3.org/2000/svg" width="126" height="86" viewBox="0 0 126 86"><g transform="translate(-305 -2023)"><g transform="translate(305 2023)" fill="none" stroke="#fff" stroke-width="2"><rect width="126" height="86" rx="8" stroke="none"/><rect x="1" y="1" width="124" height="84" rx="7" fill="none"/></g><path d="M1919,3506.294h125.713" transform="translate(-1614 -1411.485)" fill="none" stroke="#fff" stroke-width="2"/><g transform="translate(342.572 2038.285)"><path d="M757.668,386.413h-.693c-1.142-.721-1.286-1.14-.847-2.46.089-.266.174-.532.263-.8a76.287,76.287,0,0,1,4.794-11.691,10.138,10.138,0,0,1,3.5-4.023,2.683,2.683,0,0,0,1.346-1.526,23.047,23.047,0,0,1,1.511-3.106c.069-.137.123-.281.2-.454-.387-.039-.714-.077-1.042-.106-2.151-.19-4.3-.362-6.454-.574a1.44,1.44,0,0,1-1.218-2.131,15.646,15.646,0,0,1,5.385-6.517,15.44,15.44,0,0,1,9.469-2.755.807.807,0,0,0,.8-.415,35.761,35.761,0,0,1,5.277-6.4,26.956,26.956,0,0,1,12.829-6.762,47.469,47.469,0,0,1,11.8-.962c1.256.033,1.554.238,1.994,1.359v4.853c-.028.259-.07.518-.084.778a38.831,38.831,0,0,1-1.109,7.619,26.84,26.84,0,0,1-7.052,12.5,34.45,34.45,0,0,1-5.779,4.63,1.456,1.456,0,0,0-.757,1.373,17.432,17.432,0,0,1-.349,3.433,15.219,15.219,0,0,1-8.652,10.777,1.523,1.523,0,0,1-2.354-1.43c-.093-1.564-.214-3.126-.33-4.688-.058-.778-.133-1.554-.206-2.4-1.128.567-2.183,1.1-3.244,1.625-.25.123-.527.191-.773.321a1.286,1.286,0,0,0-.531.4,9.936,9.936,0,0,1-3.606,3.72,44.742,44.742,0,0,1-7.11,3.317C762.336,384.806,759.995,385.59,757.668,386.413Zm44.66-36.079c-5.651-1.277-9.1-4.727-10.383-10.436-1.093.41-2.189.769-3.242,1.226a25.043,25.043,0,0,0-10.219,8.5,79.944,79.944,0,0,0-6.438,10.883.535.535,0,0,0,.091.485q4.568,4.6,9.169,9.17a.534.534,0,0,0,.487.08,80.4,80.4,0,0,0,10.839-6.413,25.864,25.864,0,0,0,7.837-8.782A23.162,23.162,0,0,0,802.328,350.334ZM759.716,382.6c1.467-.55,2.817-1.031,4.147-1.56a38.922,38.922,0,0,0,6.521-3.064,6.7,6.7,0,0,0,2.624-3.074.489.489,0,0,0-.026-.425c-.474-.523-.976-1.02-1.561-1.621a3.619,3.619,0,0,1-.324.461q-1.322,1.338-2.658,2.662a1.492,1.492,0,1,1-2.088-2.107c.23-.236.466-.468.7-.7l2.357-2.349c-.5-.483-.979-.915-1.424-1.376a.466.466,0,0,0-.632-.121,6.976,6.976,0,0,0-3.015,2.626,46.227,46.227,0,0,0-3.494,7.574C760.452,380.5,760.119,381.5,759.716,382.6Zm35.223-43.273A9.414,9.414,0,0,0,803,347.353a45.786,45.786,0,0,0,.59-8.632A40.313,40.313,0,0,0,794.939,339.329Zm-24.482,24.34c.014-.013-.018,0-.031.031q-.393.77-.781,1.541c-.562,1.12-.562,1.121.327,2.01q2.832,2.833,5.669,5.659c.117.116.368.245.476.195.864-.4,1.708-.841,2.523-1.252Zm-7.629-4.8a1.079,1.079,0,0,0,.177.055c1.97.185,3.94.376,5.912.537a.632.632,0,0,0,.459-.307c1-1.818,1.987-3.647,2.975-5.474.053-.1.095-.2.147-.314A12.109,12.109,0,0,0,762.828,358.867Zm20.46,20.464a11.961,11.961,0,0,0,5.475-9.432.851.851,0,0,0-.137.046c-1.854,1-3.712,1.994-5.556,3.013a.632.632,0,0,0-.243.5c.085,1.4.2,2.794.311,4.19C783.181,378.2,783.236,378.754,783.288,379.331Z" transform="translate(-755.899 -335.71)" fill="#fff"/><path d="M938.539,542.343a1.482,1.482,0,1,1,1.5-1.468A1.5,1.5,0,0,1,938.539,542.343Z" transform="translate(-914.606 -514.123)" fill="#fff"/></g></g></svg>