<svg xmlns="http://www.w3.org/2000/svg" width="45.422" height="45.41" viewBox="0 0 45.422 45.41">
  <g id="Grupo_481" data-name="Grupo 481" transform="translate(-796.936 -359.275)">
    <path id="Trazado_49" data-name="Trazado 49" d="M840.449,382.174a20.8,20.8,0,1,1-21.508-20.99v-1.909a22.71,22.71,0,1,0,23.417,22.9Z" transform="translate(0 0)" fill="#fff"/>
    <path id="Trazado_50" data-name="Trazado 50" d="M801.759,381.811c.1-10.482,7.547-17.795,18.053-17.795,10.568,0,18.168,7.413,18.168,17.982,0,10.349-7.251,17.605-17.517,17.952v2.957a20.922,20.922,0,1,0-21.573-21.1Z" transform="translate(-0.165 -0.152)" fill="#fff" opacity="0.23"/>
    <g id="Grupo_28" data-name="Grupo 28" transform="translate(805.855 373.933)">
      <path id="Trazado_51" data-name="Trazado 51" d="M806.677,391.5v-1.325l1.693-1.644c4.073-3.876,5.938-5.937,5.938-8.341a2.826,2.826,0,0,0-3.141-3.116,5.432,5.432,0,0,0-3.386,1.35l-.687-1.522a7.066,7.066,0,0,1,4.489-1.619,4.486,4.486,0,0,1,4.882,4.637c0,2.944-2.134,5.324-5.5,8.562l-1.251,1.177v.049h7.139V391.5Z" transform="translate(-806.677 -375.284)" fill="#fff"/>
      <path id="Trazado_52" data-name="Trazado 52" d="M821.663,389.98a8.939,8.939,0,0,0,1.742-.074,5.846,5.846,0,0,0,3.336-1.546,6.993,6.993,0,0,0,2.11-4.219h-.073A4.677,4.677,0,0,1,825,385.834a4.614,4.614,0,0,1-4.686-4.882,5.468,5.468,0,0,1,5.446-5.668c3.263,0,5.275,2.625,5.275,6.746a10.054,10.054,0,0,1-2.748,7.459,7.966,7.966,0,0,1-4.637,2.134,10.037,10.037,0,0,1-1.987.123Zm.785-9.152a3.068,3.068,0,0,0,3.067,3.386,3.569,3.569,0,0,0,3.141-1.668,1.516,1.516,0,0,0,.2-.809c0-2.723-1.005-4.809-3.287-4.809C823.748,376.928,822.447,378.547,822.447,380.828Z" transform="translate(-807.828 -375.284)" fill="#fff"/>
    </g>
    <g id="Grupo_29" data-name="Grupo 29" transform="translate(829.823 384.238)">
      <path id="Trazado_53" data-name="Trazado 53" d="M833.075,390.788a2.6,2.6,0,0,0,1.228.357c.661,0,.975-.325.975-.755s-.262-.672-.934-.924c-.923-.335-1.353-.829-1.353-1.437a1.572,1.572,0,0,1,1.752-1.491,2.353,2.353,0,0,1,1.238.315l-.22.671a1.974,1.974,0,0,0-1.039-.3c-.546,0-.839.315-.839.693,0,.419.293.608.954.871.871.325,1.333.766,1.333,1.521,0,.9-.7,1.532-1.889,1.532a2.9,2.9,0,0,1-1.427-.356Z" transform="translate(-832.854 -386.539)" fill="#fff"/>
    </g>
  </g>
</svg>
