<svg xmlns="http://www.w3.org/2000/svg" width="27.079" height="25.95" viewBox="0 0 27.079 25.95">
  <path id="Trazado_373" data-name="Trazado 373" d="M869.334,362.535l2.633,5.335a2,2,0,0,0,1.507,1.1l5.888.855a2,2,0,0,1,1.109,3.414l-4.261,4.153a2,2,0,0,0-.575,1.771l1.006,5.864a2,2,0,0,1-2.9,2.11l-5.266-2.769a2,2,0,0,0-1.863,0l-5.267,2.769a2,2,0,0,1-2.9-2.11l1.006-5.864a2,2,0,0,0-.576-1.771l-4.261-4.153a2,2,0,0,1,1.11-3.414l5.888-.855a2,2,0,0,0,1.507-1.1l2.633-5.335A2,2,0,0,1,869.334,362.535Z" transform="translate(-853.999 -361.419)" fill="#f89c1c"/>
</svg>
