<svg xmlns="http://www.w3.org/2000/svg" width="60.865" height="60.865" viewBox="0 0 60.865 60.865"><g transform="translate(-1792.135 -571.695)"><g transform="translate(1792.135 571.695)"><path d="M218.767,313.148a30.432,30.432,0,1,1-30.429,30.431A30.432,30.432,0,0,1,218.767,313.148Z" transform="translate(-188.338 -313.148)" fill-rule="evenodd"/></g><g transform="translate(1809.05 587.005)"><path d="M226.524,335.3a11.989,11.989,0,0,1-6.729-2.05v10.072a10.153,10.153,0,1,1-10.154-10.153v5.336a4.817,4.817,0,1,0,4.818,4.817V323.239H219.8a6.721,6.721,0,0,0,6.729,6.727Z" transform="translate(-199.487 -323.239)" fill="#fff" fill-rule="evenodd"/></g></g></svg>