<svg xmlns="http://www.w3.org/2000/svg" width="76.917" height="76.911" viewBox="0 0 76.917 76.911"><g transform="translate(-313.145 -63.529)"><g transform="translate(313.145 63.529)"><path d="M351.6,63.529a38.455,38.455,0,1,1-38.459,38.454A38.457,38.457,0,0,1,351.6,63.529Z" transform="translate(-313.145 -63.529)" fill="#34cf37" fill-rule="evenodd"/><g transform="translate(16.834 16.83)"><path d="M343.551,111.781a17.83,17.83,0,0,1-8.987-2.433,1.923,1.923,0,0,0-.957-.257,1.754,1.754,0,0,0-.495.071l-5.914,1.622,2.061-4.536a1.915,1.915,0,0,0-.188-1.89,17.844,17.844,0,1,1,14.48,7.423Zm0-39.473a21.627,21.627,0,0,0-18.172,33.346L322.1,112.89a1.883,1.883,0,0,0,2.216,2.6l9.053-2.483a21.623,21.623,0,1,0,10.186-40.7Z" transform="translate(-321.926 -72.308)" fill="#fff" fill-rule="evenodd"/><g transform="translate(11.117 11.749)"><path d="M346.546,91.551c-.907-.543-2.084-1.145-3.152-.711-.817.334-1.336,1.62-1.869,2.274a.791.791,0,0,1-1.014.22,14.263,14.263,0,0,1-7.122-6.1.866.866,0,0,1,.111-1.191,4.941,4.941,0,0,0,1.292-2.1,4.573,4.573,0,0,0-.581-2.486c-.429-.926-.907-2.245-1.833-2.768a2.516,2.516,0,0,0-2.732.406,5.526,5.526,0,0,0-1.921,4.4,5.993,5.993,0,0,0,.173,1.394,11.355,11.355,0,0,0,1.338,3.075,24.891,24.891,0,0,0,1.392,2.128,21.583,21.583,0,0,0,6.06,5.621,18.126,18.126,0,0,0,3.769,1.8,8.4,8.4,0,0,0,4.4.7,5.322,5.322,0,0,0,3.986-2.966,2.568,2.568,0,0,0,.192-1.515C348.8,92.674,347.387,92.057,346.546,91.551Z" transform="translate(-327.725 -78.436)" fill="#fff" fill-rule="evenodd"/></g></g></g></g></svg>